<svg width="300" height="300" viewBox="0 0 300 300" fill="none" xmlns="http://www.w3.org/2000/svg">
<path d="M246.266 160.902C237.595 150.689 227.832 147.693 212.579 150.551L172.877 159.383L171.427 130.771L179.786 128.91C181.728 128.587 184.14 129.631 185.64 131.487C188.024 134.432 187.573 138.768 184.642 141.16C183.505 142.088 182.133 142.614 180.683 142.688C178.396 142.808 176.638 144.761 176.757 147.056C176.872 149.276 178.704 150.999 180.895 150.999C180.969 150.999 181.038 150.999 181.111 150.994C184.333 150.828 187.362 149.66 189.87 147.614C196.355 142.332 197.345 132.747 192.079 126.242C188.434 121.74 182.529 119.598 177.392 120.918L170.999 122.34L169.26 87.9795C169.057 75.4024 172.136 69.0538 181.01 63.7395C186.63 60.3783 193.285 59.4594 199.752 61.1586C206.214 62.8577 211.558 66.9253 214.807 72.6137C218.07 78.3297 218.913 84.9783 217.173 91.3269C215.433 97.6801 211.327 102.962 205.611 106.203C199.522 109.657 192.231 110.331 185.608 108.05C183.44 107.302 181.084 108.461 180.343 110.636C179.602 112.81 180.752 115.174 182.92 115.918C191.785 118.97 201.542 118.065 209.694 113.443C217.343 109.103 222.839 102.029 225.167 93.5293C227.496 85.0291 226.369 76.1319 222.001 68.4767C217.638 60.8354 210.481 55.3779 201.851 53.1109C193.216 50.8393 184.306 52.0767 176.762 56.5922C165.278 63.4671 160.703 72.6183 160.97 88.1872L162.793 124.159L134.915 130.36L134.238 117.012C134.248 115.031 135.674 112.829 137.75 111.651C141.041 109.786 145.229 110.954 147.089 114.251C147.811 115.53 148.101 116.97 147.931 118.425C147.664 120.706 149.294 122.77 151.567 123.037C153.85 123.305 155.898 121.666 156.165 119.39C156.538 116.176 155.894 112.986 154.301 110.16C150.191 102.87 140.931 100.289 133.663 104.412C128.628 107.27 125.544 112.75 125.986 118.055L126.704 132.193L85.8374 141.284C73.507 143.584 66.755 141.594 60.0536 133.703C55.81 128.707 53.7986 122.276 54.3924 115.595C54.9861 108.923 58.0929 102.953 63.1419 98.7928C68.2186 94.6097 74.607 92.6751 81.1427 93.3307C87.6738 93.991 93.5513 97.1722 97.6891 102.283C102.098 107.732 103.976 114.828 102.839 121.763C102.467 124.03 103.999 126.168 106.259 126.542C108.524 126.916 110.65 125.378 111.023 123.111C112.542 113.835 110.029 104.333 104.124 97.0383C98.582 90.1957 90.7161 85.9387 81.9712 85.0522C73.2262 84.1703 64.67 86.7652 57.8765 92.3611C51.1015 97.9663 46.9269 105.954 46.1353 114.87C45.3436 123.79 48.0454 132.396 53.7434 139.105C62.4147 149.318 72.1722 152.315 87.4299 149.457L127.132 140.624L128.582 169.236L120.219 171.097C118.272 171.416 115.865 170.372 114.364 168.516C113.209 167.089 112.68 165.298 112.868 163.474C113.057 161.646 113.945 160.002 115.363 158.848C116.5 157.92 117.867 157.393 119.321 157.32C121.609 157.199 123.367 155.246 123.247 152.952C123.128 150.657 121.195 148.893 118.893 149.013C115.671 149.18 112.643 150.348 110.135 152.393C106.996 154.951 105.035 158.585 104.616 162.62C104.197 166.655 105.375 170.617 107.925 173.766C111.571 178.272 117.476 180.41 122.617 179.085L129.005 177.663L130.745 212.023C130.948 224.6 127.868 230.949 118.995 236.263C113.375 239.625 106.719 240.543 100.253 238.844C93.7907 237.145 88.447 233.077 85.1976 227.389C81.9344 221.673 81.0921 215.024 82.8319 208.676C84.5716 202.327 88.6772 197.041 94.389 193.799C100.478 190.346 107.769 189.672 114.392 191.953C116.555 192.696 118.916 191.542 119.657 189.367C120.398 187.192 119.248 184.828 117.08 184.085C108.215 181.033 98.4531 181.938 90.3065 186.56C82.657 190.9 77.1615 197.973 74.8325 206.474C72.5036 214.974 73.6312 223.871 77.9991 231.526C82.3624 239.167 89.5195 244.625 98.1493 246.892C100.975 247.635 103.829 248 106.655 248C112.468 248 118.166 246.444 123.243 243.406C134.726 236.531 139.297 227.38 139.034 211.811L137.212 175.839L165.09 169.638L165.766 182.995C165.752 184.972 164.33 187.174 162.254 188.351C160.662 189.256 158.812 189.482 157.049 188.993C155.286 188.504 153.818 187.349 152.916 185.752C152.193 184.473 151.903 183.032 152.073 181.578C152.34 179.297 150.711 177.233 148.437 176.965C146.168 176.707 144.106 178.332 143.839 180.613C143.467 183.826 144.111 187.017 145.699 189.843C147.692 193.375 150.932 195.919 154.83 197.004C156.179 197.378 157.546 197.562 158.904 197.562C161.481 197.562 164.031 196.893 166.337 195.586C171.372 192.728 174.456 187.243 174.014 181.938L173.296 167.81L214.163 158.719C226.493 156.419 233.245 158.409 239.946 166.3C244.19 171.296 246.197 177.727 245.608 184.404C245.014 191.08 241.907 197.045 236.858 201.205C231.781 205.388 225.398 207.328 218.857 206.667C212.326 206.007 206.449 202.826 202.311 197.715C197.902 192.267 196.024 185.17 197.161 178.235C197.533 175.968 196.001 173.83 193.741 173.456C191.472 173.082 189.35 174.62 188.977 176.887C187.458 186.163 189.971 195.665 195.872 202.96C201.413 209.802 209.279 214.059 218.024 214.946C219.147 215.057 220.266 215.117 221.375 215.117C228.932 215.117 236.195 212.517 242.119 207.637C248.903 202.046 253.073 194.058 253.865 185.147C254.656 176.227 251.955 167.62 246.257 160.912L246.266 160.902ZM136.788 167.413L135.338 138.8L163.216 132.599L164.666 161.212L136.788 167.413Z" fill="#E8E1D8"/>
</svg>
